<mxfile host="app.diagrams.net" modified="2023-07-22T04:07:12.182Z" agent="Mozilla/5.0 (Windows NT 10.0; Win64; x64) AppleWebKit/537.36 (KHTML, like Gecko) Chrome/115.0.0.0 Safari/537.36" version="21.6.2" etag="In8Zon-OpoQUQ90xKQt2" type="device">
  <diagram name="Page-1" id="1ZqelRtR58Mp4bGrBmQF">
    <mxGraphModel dx="724" dy="430" grid="1" gridSize="10" guides="1" tooltips="1" connect="1" arrows="1" fold="1" page="1" pageScale="1" pageWidth="850" pageHeight="1100" background="none" math="0" shadow="0">
      <root>
        <mxCell id="0" />
        <mxCell id="1" parent="0" />
        <mxCell id="TScpjYr6p5Fea-ma_9VI-13" value="DENTIST" style="swimlane;fontStyle=0;childLayout=stackLayout;horizontal=1;startSize=26;horizontalStack=0;resizeParent=1;resizeParentMax=0;resizeLast=0;collapsible=1;marginBottom=0;align=center;fontSize=14;" parent="1" vertex="1">
          <mxGeometry x="648.75" y="1044" width="160" height="56" as="geometry" />
        </mxCell>
        <mxCell id="TScpjYr6p5Fea-ma_9VI-52" value="ROOM" style="swimlane;fontStyle=0;childLayout=stackLayout;horizontal=1;startSize=26;horizontalStack=0;resizeParent=1;resizeParentMax=0;resizeLast=0;collapsible=1;marginBottom=0;align=center;fontSize=14;" parent="1" vertex="1">
          <mxGeometry x="1370" y="1380" width="160" height="86" as="geometry" />
        </mxCell>
        <mxCell id="TScpjYr6p5Fea-ma_9VI-53" value="&lt;u&gt;CODE&lt;/u&gt;" style="text;strokeColor=none;fillColor=none;spacingLeft=4;spacingRight=4;overflow=hidden;rotatable=0;points=[[0,0.5],[1,0.5]];portConstraint=eastwest;fontSize=12;whiteSpace=wrap;html=1;" parent="TScpjYr6p5Fea-ma_9VI-52" vertex="1">
          <mxGeometry y="26" width="160" height="30" as="geometry" />
        </mxCell>
        <mxCell id="2ctIC8E9U0INF1ZIrR8m-14" value="NAME" style="text;strokeColor=none;fillColor=none;spacingLeft=4;spacingRight=4;overflow=hidden;rotatable=0;points=[[0,0.5],[1,0.5]];portConstraint=eastwest;fontSize=12;whiteSpace=wrap;html=1;" parent="TScpjYr6p5Fea-ma_9VI-52" vertex="1">
          <mxGeometry y="56" width="160" height="30" as="geometry" />
        </mxCell>
        <mxCell id="TScpjYr6p5Fea-ma_9VI-64" value="PATIENT" style="swimlane;fontStyle=0;childLayout=stackLayout;horizontal=1;startSize=26;horizontalStack=0;resizeParent=1;resizeParentMax=0;resizeLast=0;collapsible=1;marginBottom=0;align=center;fontSize=14;" parent="1" vertex="1">
          <mxGeometry x="1030" y="870" width="190" height="120" as="geometry" />
        </mxCell>
        <mxCell id="tFlB_O44RkPan1QI3NoO-107" value="ALLERGIC_STATUS" style="text;strokeColor=none;fillColor=none;spacingLeft=4;spacingRight=4;overflow=hidden;rotatable=0;points=[[0,0.5],[1,0.5]];portConstraint=eastwest;fontSize=12;whiteSpace=wrap;html=1;" parent="TScpjYr6p5Fea-ma_9VI-64" vertex="1">
          <mxGeometry y="26" width="190" height="30" as="geometry" />
        </mxCell>
        <mxCell id="tFlB_O44RkPan1QI3NoO-108" value="DRUG_CONTRAINDICATIONS" style="text;strokeColor=none;fillColor=none;spacingLeft=4;spacingRight=4;overflow=hidden;rotatable=0;points=[[0,0.5],[1,0.5]];portConstraint=eastwest;fontSize=12;whiteSpace=wrap;html=1;" parent="TScpjYr6p5Fea-ma_9VI-64" vertex="1">
          <mxGeometry y="56" width="190" height="34" as="geometry" />
        </mxCell>
        <mxCell id="tFlB_O44RkPan1QI3NoO-109" value="ORAL_HEALTH_STATUS" style="text;strokeColor=none;fillColor=none;spacingLeft=4;spacingRight=4;overflow=hidden;rotatable=0;points=[[0,0.5],[1,0.5]];portConstraint=eastwest;fontSize=12;whiteSpace=wrap;html=1;" parent="TScpjYr6p5Fea-ma_9VI-64" vertex="1">
          <mxGeometry y="90" width="190" height="30" as="geometry" />
        </mxCell>
        <mxCell id="TScpjYr6p5Fea-ma_9VI-93" value="PAYMENT RECORD" style="swimlane;fontStyle=0;childLayout=stackLayout;horizontal=1;startSize=26;horizontalStack=0;resizeParent=1;resizeParentMax=0;resizeLast=0;collapsible=1;marginBottom=0;align=center;fontSize=14;" parent="1" vertex="1">
          <mxGeometry x="980" y="1070" width="210" height="236" as="geometry" />
        </mxCell>
        <mxCell id="2ctIC8E9U0INF1ZIrR8m-19" value="&lt;u&gt;ID&lt;/u&gt;" style="text;strokeColor=none;fillColor=none;spacingLeft=4;spacingRight=4;overflow=hidden;rotatable=0;points=[[0,0.5],[1,0.5]];portConstraint=eastwest;fontSize=12;whiteSpace=wrap;html=1;" parent="TScpjYr6p5Fea-ma_9VI-93" vertex="1">
          <mxGeometry y="26" width="210" height="30" as="geometry" />
        </mxCell>
        <mxCell id="TScpjYr6p5Fea-ma_9VI-94" value="TIME" style="text;strokeColor=none;fillColor=none;spacingLeft=4;spacingRight=4;overflow=hidden;rotatable=0;points=[[0,0.5],[1,0.5]];portConstraint=eastwest;fontSize=12;whiteSpace=wrap;html=1;" parent="TScpjYr6p5Fea-ma_9VI-93" vertex="1">
          <mxGeometry y="56" width="210" height="30" as="geometry" />
        </mxCell>
        <mxCell id="TScpjYr6p5Fea-ma_9VI-95" value="TOTAL" style="text;strokeColor=none;fillColor=none;spacingLeft=4;spacingRight=4;overflow=hidden;rotatable=0;points=[[0,0.5],[1,0.5]];portConstraint=eastwest;fontSize=12;whiteSpace=wrap;html=1;" parent="TScpjYr6p5Fea-ma_9VI-93" vertex="1">
          <mxGeometry y="86" width="210" height="30" as="geometry" />
        </mxCell>
        <mxCell id="TScpjYr6p5Fea-ma_9VI-96" value="AMOUNT_PAID" style="text;strokeColor=none;fillColor=none;spacingLeft=4;spacingRight=4;overflow=hidden;rotatable=0;points=[[0,0.5],[1,0.5]];portConstraint=eastwest;fontSize=12;whiteSpace=wrap;html=1;" parent="TScpjYr6p5Fea-ma_9VI-93" vertex="1">
          <mxGeometry y="116" width="210" height="30" as="geometry" />
        </mxCell>
        <mxCell id="TScpjYr6p5Fea-ma_9VI-97" value="CHANGE" style="text;strokeColor=none;fillColor=none;spacingLeft=4;spacingRight=4;overflow=hidden;rotatable=0;points=[[0,0.5],[1,0.5]];portConstraint=eastwest;fontSize=12;whiteSpace=wrap;html=1;" parent="TScpjYr6p5Fea-ma_9VI-93" vertex="1">
          <mxGeometry y="146" width="210" height="30" as="geometry" />
        </mxCell>
        <mxCell id="TScpjYr6p5Fea-ma_9VI-98" value="PAYMENT_TYPE" style="text;strokeColor=none;fillColor=none;spacingLeft=4;spacingRight=4;overflow=hidden;rotatable=0;points=[[0,0.5],[1,0.5]];portConstraint=eastwest;fontSize=12;whiteSpace=wrap;html=1;" parent="TScpjYr6p5Fea-ma_9VI-93" vertex="1">
          <mxGeometry y="176" width="210" height="30" as="geometry" />
        </mxCell>
        <mxCell id="4" value="NOTE" style="text;strokeColor=none;fillColor=none;spacingLeft=4;spacingRight=4;overflow=hidden;rotatable=0;points=[[0,0.5],[1,0.5]];portConstraint=eastwest;fontSize=12;whiteSpace=wrap;html=1;" parent="TScpjYr6p5Fea-ma_9VI-93" vertex="1">
          <mxGeometry y="206" width="210" height="30" as="geometry" />
        </mxCell>
        <mxCell id="TScpjYr6p5Fea-ma_9VI-100" value="APPOINTMENT REQUEST" style="swimlane;fontStyle=0;childLayout=stackLayout;horizontal=1;startSize=26;horizontalStack=0;resizeParent=1;resizeParentMax=0;resizeLast=0;collapsible=1;marginBottom=0;align=center;fontSize=14;" parent="1" vertex="1">
          <mxGeometry x="717.5" y="1620" width="202.5" height="176" as="geometry" />
        </mxCell>
        <mxCell id="tFlB_O44RkPan1QI3NoO-69" value="&lt;u&gt;CODE&lt;/u&gt;" style="text;strokeColor=none;fillColor=none;spacingLeft=4;spacingRight=4;overflow=hidden;rotatable=0;points=[[0,0.5],[1,0.5]];portConstraint=eastwest;fontSize=12;whiteSpace=wrap;html=1;" parent="TScpjYr6p5Fea-ma_9VI-100" vertex="1">
          <mxGeometry y="26" width="202.5" height="30" as="geometry" />
        </mxCell>
        <mxCell id="2ctIC8E9U0INF1ZIrR8m-20" value="&lt;span&gt;APPOINTMENT_TIME&lt;/span&gt;" style="text;strokeColor=none;fillColor=none;spacingLeft=4;spacingRight=4;overflow=hidden;rotatable=0;points=[[0,0.5],[1,0.5]];portConstraint=eastwest;fontSize=12;whiteSpace=wrap;html=1;fontStyle=0" parent="TScpjYr6p5Fea-ma_9VI-100" vertex="1">
          <mxGeometry y="56" width="202.5" height="30" as="geometry" />
        </mxCell>
        <mxCell id="tFlB_O44RkPan1QI3NoO-141" value="REQUEST_TIME" style="text;strokeColor=none;fillColor=none;spacingLeft=4;spacingRight=4;overflow=hidden;rotatable=0;points=[[0,0.5],[1,0.5]];portConstraint=eastwest;fontSize=12;whiteSpace=wrap;html=1;fontStyle=0" parent="TScpjYr6p5Fea-ma_9VI-100" vertex="1">
          <mxGeometry y="86" width="202.5" height="30" as="geometry" />
        </mxCell>
        <mxCell id="TScpjYr6p5Fea-ma_9VI-101" value="{PATIENT INFORMATION}" style="text;strokeColor=none;fillColor=none;spacingLeft=4;spacingRight=4;overflow=hidden;rotatable=0;points=[[0,0.5],[1,0.5]];portConstraint=eastwest;fontSize=12;whiteSpace=wrap;html=1;" parent="TScpjYr6p5Fea-ma_9VI-100" vertex="1">
          <mxGeometry y="116" width="202.5" height="30" as="geometry" />
        </mxCell>
        <mxCell id="tFlB_O44RkPan1QI3NoO-68" value="NOTE" style="text;strokeColor=none;fillColor=none;spacingLeft=4;spacingRight=4;overflow=hidden;rotatable=0;points=[[0,0.5],[1,0.5]];portConstraint=eastwest;fontSize=12;whiteSpace=wrap;html=1;" parent="TScpjYr6p5Fea-ma_9VI-100" vertex="1">
          <mxGeometry y="146" width="202.5" height="30" as="geometry" />
        </mxCell>
        <mxCell id="2ctIC8E9U0INF1ZIrR8m-1" value="STAFF" style="swimlane;fontStyle=0;childLayout=stackLayout;horizontal=1;startSize=26;horizontalStack=0;resizeParent=1;resizeParentMax=0;resizeLast=0;collapsible=1;marginBottom=0;align=center;fontSize=14;" parent="1" vertex="1">
          <mxGeometry x="670" y="820" width="160" height="56" as="geometry" />
        </mxCell>
        <mxCell id="2ctIC8E9U0INF1ZIrR8m-5" value="PERSONEL" style="swimlane;fontStyle=0;childLayout=stackLayout;horizontal=1;startSize=26;horizontalStack=0;resizeParent=1;resizeParentMax=0;resizeLast=0;collapsible=1;marginBottom=0;align=center;fontSize=14;" parent="1" vertex="1">
          <mxGeometry x="236.25" y="773" width="160" height="230" as="geometry" />
        </mxCell>
        <mxCell id="2ctIC8E9U0INF1ZIrR8m-6" value="&lt;u&gt;ID&lt;/u&gt;" style="text;strokeColor=none;fillColor=none;spacingLeft=4;spacingRight=4;overflow=hidden;rotatable=0;points=[[0,0.5],[1,0.5]];portConstraint=eastwest;fontSize=12;whiteSpace=wrap;html=1;" parent="2ctIC8E9U0INF1ZIrR8m-5" vertex="1">
          <mxGeometry y="26" width="160" height="30" as="geometry" />
        </mxCell>
        <mxCell id="2ctIC8E9U0INF1ZIrR8m-7" value="NATIONAL_ID" style="text;strokeColor=none;fillColor=none;spacingLeft=4;spacingRight=4;overflow=hidden;rotatable=0;points=[[0,0.5],[1,0.5]];portConstraint=eastwest;fontSize=12;whiteSpace=wrap;html=1;" parent="2ctIC8E9U0INF1ZIrR8m-5" vertex="1">
          <mxGeometry y="56" width="160" height="30" as="geometry" />
        </mxCell>
        <mxCell id="2ctIC8E9U0INF1ZIrR8m-8" value="NAME" style="text;strokeColor=none;fillColor=none;spacingLeft=4;spacingRight=4;overflow=hidden;rotatable=0;points=[[0,0.5],[1,0.5]];portConstraint=eastwest;fontSize=12;whiteSpace=wrap;html=1;" parent="2ctIC8E9U0INF1ZIrR8m-5" vertex="1">
          <mxGeometry y="86" width="160" height="30" as="geometry" />
        </mxCell>
        <mxCell id="2ctIC8E9U0INF1ZIrR8m-11" value="DOB" style="text;strokeColor=none;fillColor=none;spacingLeft=4;spacingRight=4;overflow=hidden;rotatable=0;points=[[0,0.5],[1,0.5]];portConstraint=eastwest;fontSize=12;whiteSpace=wrap;html=1;" parent="2ctIC8E9U0INF1ZIrR8m-5" vertex="1">
          <mxGeometry y="116" width="160" height="30" as="geometry" />
        </mxCell>
        <mxCell id="tFlB_O44RkPan1QI3NoO-49" value="GENDER" style="text;strokeColor=none;fillColor=none;spacingLeft=4;spacingRight=4;overflow=hidden;rotatable=0;points=[[0,0.5],[1,0.5]];portConstraint=eastwest;fontSize=12;whiteSpace=wrap;html=1;" parent="2ctIC8E9U0INF1ZIrR8m-5" vertex="1">
          <mxGeometry y="146" width="160" height="30" as="geometry" />
        </mxCell>
        <mxCell id="tFlB_O44RkPan1QI3NoO-117" value="AGE" style="text;strokeColor=none;fillColor=none;spacingLeft=4;spacingRight=4;overflow=hidden;rotatable=0;points=[[0,0.5],[1,0.5]];portConstraint=eastwest;fontSize=12;whiteSpace=wrap;html=1;" parent="2ctIC8E9U0INF1ZIrR8m-5" vertex="1">
          <mxGeometry y="176" width="160" height="24" as="geometry" />
        </mxCell>
        <mxCell id="3" value="PHONE" style="text;strokeColor=none;fillColor=none;spacingLeft=4;spacingRight=4;overflow=hidden;rotatable=0;points=[[0,0.5],[1,0.5]];portConstraint=eastwest;fontSize=12;whiteSpace=wrap;html=1;" parent="2ctIC8E9U0INF1ZIrR8m-5" vertex="1">
          <mxGeometry y="200" width="160" height="30" as="geometry" />
        </mxCell>
        <mxCell id="2ctIC8E9U0INF1ZIrR8m-22" value="SCHEDULE" style="swimlane;fontStyle=0;childLayout=stackLayout;horizontal=1;startSize=26;horizontalStack=0;resizeParent=1;resizeParentMax=0;resizeLast=0;collapsible=1;marginBottom=0;align=center;fontSize=14;" parent="1" vertex="1">
          <mxGeometry x="1035" y="690" width="160" height="116" as="geometry" />
        </mxCell>
        <mxCell id="2ctIC8E9U0INF1ZIrR8m-23" value="TIME" style="text;strokeColor=none;fillColor=none;spacingLeft=4;spacingRight=4;overflow=hidden;rotatable=0;points=[[0,0.5],[1,0.5]];portConstraint=eastwest;fontSize=12;whiteSpace=wrap;html=1;" parent="2ctIC8E9U0INF1ZIrR8m-22" vertex="1">
          <mxGeometry y="26" width="160" height="30" as="geometry" />
        </mxCell>
        <mxCell id="2ctIC8E9U0INF1ZIrR8m-24" value="IS_HOLIDAY" style="text;strokeColor=none;fillColor=none;spacingLeft=4;spacingRight=4;overflow=hidden;rotatable=0;points=[[0,0.5],[1,0.5]];portConstraint=eastwest;fontSize=12;whiteSpace=wrap;html=1;" parent="2ctIC8E9U0INF1ZIrR8m-22" vertex="1">
          <mxGeometry y="56" width="160" height="30" as="geometry" />
        </mxCell>
        <mxCell id="2ctIC8E9U0INF1ZIrR8m-25" value="OVERALL_NOTE" style="text;strokeColor=none;fillColor=none;spacingLeft=4;spacingRight=4;overflow=hidden;rotatable=0;points=[[0,0.5],[1,0.5]];portConstraint=eastwest;fontSize=12;whiteSpace=wrap;html=1;" parent="2ctIC8E9U0INF1ZIrR8m-22" vertex="1">
          <mxGeometry y="86" width="160" height="30" as="geometry" />
        </mxCell>
        <mxCell id="tFlB_O44RkPan1QI3NoO-11" value="TREATMENT SESSION" style="swimlane;fontStyle=0;childLayout=stackLayout;horizontal=1;startSize=26;horizontalStack=0;resizeParent=1;resizeParentMax=0;resizeLast=0;collapsible=1;marginBottom=0;align=center;fontSize=14;" parent="1" vertex="1">
          <mxGeometry x="717.5" y="1240" width="182.5" height="116" as="geometry" />
        </mxCell>
        <mxCell id="tFlB_O44RkPan1QI3NoO-12" value="HEALTH_NOTE" style="text;strokeColor=none;fillColor=none;spacingLeft=4;spacingRight=4;overflow=hidden;rotatable=0;points=[[0,0.5],[1,0.5]];portConstraint=eastwest;fontSize=12;whiteSpace=wrap;html=1;" parent="tFlB_O44RkPan1QI3NoO-11" vertex="1">
          <mxGeometry y="26" width="182.5" height="30" as="geometry" />
        </mxCell>
        <mxCell id="tFlB_O44RkPan1QI3NoO-13" value="STATUS" style="text;strokeColor=none;fillColor=none;spacingLeft=4;spacingRight=4;overflow=hidden;rotatable=0;points=[[0,0.5],[1,0.5]];portConstraint=eastwest;fontSize=12;whiteSpace=wrap;html=1;" parent="tFlB_O44RkPan1QI3NoO-11" vertex="1">
          <mxGeometry y="56" width="182.5" height="30" as="geometry" />
        </mxCell>
        <mxCell id="tFlB_O44RkPan1QI3NoO-96" value="DESCRIPTION" style="text;strokeColor=none;fillColor=none;spacingLeft=4;spacingRight=4;overflow=hidden;rotatable=0;points=[[0,0.5],[1,0.5]];portConstraint=eastwest;fontSize=12;whiteSpace=wrap;html=1;" parent="tFlB_O44RkPan1QI3NoO-11" vertex="1">
          <mxGeometry y="86" width="182.5" height="30" as="geometry" />
        </mxCell>
        <mxCell id="tFlB_O44RkPan1QI3NoO-19" value="CATEGORY" style="swimlane;fontStyle=0;childLayout=stackLayout;horizontal=1;startSize=26;horizontalStack=0;resizeParent=1;resizeParentMax=0;resizeLast=0;collapsible=1;marginBottom=0;align=center;fontSize=14;" parent="1" vertex="1">
          <mxGeometry x="350" y="1270" width="210" height="86" as="geometry" />
        </mxCell>
        <mxCell id="tFlB_O44RkPan1QI3NoO-20" value="&lt;u&gt;NAME&lt;/u&gt;" style="text;strokeColor=none;fillColor=none;spacingLeft=4;spacingRight=4;overflow=hidden;rotatable=0;points=[[0,0.5],[1,0.5]];portConstraint=eastwest;fontSize=12;whiteSpace=wrap;html=1;" parent="tFlB_O44RkPan1QI3NoO-19" vertex="1">
          <mxGeometry y="26" width="210" height="30" as="geometry" />
        </mxCell>
        <mxCell id="dPmDBc9KIw9kbBb1pNCt-47" value="DESCRIPTION" style="text;strokeColor=none;fillColor=none;spacingLeft=4;spacingRight=4;overflow=hidden;rotatable=0;points=[[0,0.5],[1,0.5]];portConstraint=eastwest;fontSize=12;whiteSpace=wrap;html=1;" vertex="1" parent="tFlB_O44RkPan1QI3NoO-19">
          <mxGeometry y="56" width="210" height="30" as="geometry" />
        </mxCell>
        <mxCell id="tFlB_O44RkPan1QI3NoO-21" value="PROCEDURE" style="swimlane;fontStyle=0;childLayout=stackLayout;horizontal=1;startSize=26;horizontalStack=0;resizeParent=1;resizeParentMax=0;resizeLast=0;collapsible=1;marginBottom=0;align=center;fontSize=14;" parent="1" vertex="1">
          <mxGeometry x="350" y="1136" width="210" height="116" as="geometry" />
        </mxCell>
        <mxCell id="tFlB_O44RkPan1QI3NoO-22" value="&lt;u&gt;CODE&lt;/u&gt;" style="text;strokeColor=none;fillColor=none;spacingLeft=4;spacingRight=4;overflow=hidden;rotatable=0;points=[[0,0.5],[1,0.5]];portConstraint=eastwest;fontSize=12;whiteSpace=wrap;html=1;" parent="tFlB_O44RkPan1QI3NoO-21" vertex="1">
          <mxGeometry y="26" width="210" height="30" as="geometry" />
        </mxCell>
        <mxCell id="tFlB_O44RkPan1QI3NoO-23" value="DESCRIPTION" style="text;strokeColor=none;fillColor=none;spacingLeft=4;spacingRight=4;overflow=hidden;rotatable=0;points=[[0,0.5],[1,0.5]];portConstraint=eastwest;fontSize=12;whiteSpace=wrap;html=1;" parent="tFlB_O44RkPan1QI3NoO-21" vertex="1">
          <mxGeometry y="56" width="210" height="30" as="geometry" />
        </mxCell>
        <mxCell id="tFlB_O44RkPan1QI3NoO-27" value="FEE" style="text;strokeColor=none;fillColor=none;spacingLeft=4;spacingRight=4;overflow=hidden;rotatable=0;points=[[0,0.5],[1,0.5]];portConstraint=eastwest;fontSize=12;whiteSpace=wrap;html=1;" parent="tFlB_O44RkPan1QI3NoO-21" vertex="1">
          <mxGeometry y="86" width="210" height="30" as="geometry" />
        </mxCell>
        <mxCell id="tFlB_O44RkPan1QI3NoO-24" value="TEETH" style="swimlane;fontStyle=0;childLayout=stackLayout;horizontal=1;startSize=26;horizontalStack=0;resizeParent=1;resizeParentMax=0;resizeLast=0;collapsible=1;marginBottom=0;align=center;fontSize=14;" parent="1" vertex="1">
          <mxGeometry x="528.75" y="1501" width="150" height="86" as="geometry" />
        </mxCell>
        <mxCell id="tFlB_O44RkPan1QI3NoO-25" value="&lt;u&gt;TYPE&lt;/u&gt;" style="text;strokeColor=none;fillColor=none;spacingLeft=4;spacingRight=4;overflow=hidden;rotatable=0;points=[[0,0.5],[1,0.5]];portConstraint=eastwest;fontSize=12;whiteSpace=wrap;html=1;" parent="tFlB_O44RkPan1QI3NoO-24" vertex="1">
          <mxGeometry y="26" width="150" height="30" as="geometry" />
        </mxCell>
        <mxCell id="tFlB_O44RkPan1QI3NoO-26" value="DESCRIPTION" style="text;strokeColor=none;fillColor=none;spacingLeft=4;spacingRight=4;overflow=hidden;rotatable=0;points=[[0,0.5],[1,0.5]];portConstraint=eastwest;fontSize=12;whiteSpace=wrap;html=1;" parent="tFlB_O44RkPan1QI3NoO-24" vertex="1">
          <mxGeometry y="56" width="150" height="30" as="geometry" />
        </mxCell>
        <mxCell id="tFlB_O44RkPan1QI3NoO-32" value="" style="edgeStyle=entityRelationEdgeStyle;fontSize=12;html=1;endArrow=ERoneToMany;startArrow=ERmandOne;rounded=0;" parent="1" source="tFlB_O44RkPan1QI3NoO-19" target="tFlB_O44RkPan1QI3NoO-21" edge="1">
          <mxGeometry width="100" height="100" relative="1" as="geometry">
            <mxPoint x="670" y="1338" as="sourcePoint" />
            <mxPoint x="870" y="1268" as="targetPoint" />
          </mxGeometry>
        </mxCell>
        <mxCell id="tFlB_O44RkPan1QI3NoO-38" value="ASSISTANT" style="swimlane;fontStyle=0;childLayout=stackLayout;horizontal=1;startSize=26;horizontalStack=0;resizeParent=1;resizeParentMax=0;resizeLast=0;collapsible=1;marginBottom=0;align=center;fontSize=14;" parent="1" vertex="1">
          <mxGeometry x="310" y="1044" width="160" height="56" as="geometry" />
        </mxCell>
        <mxCell id="tFlB_O44RkPan1QI3NoO-40" value="" style="edgeStyle=entityRelationEdgeStyle;fontSize=12;html=1;endArrow=ERoneToMany;startArrow=ERmandOne;rounded=0;exitX=1;exitY=0.75;exitDx=0;exitDy=0;" parent="1" source="TScpjYr6p5Fea-ma_9VI-13" target="tFlB_O44RkPan1QI3NoO-127" edge="1">
          <mxGeometry width="100" height="100" relative="1" as="geometry">
            <mxPoint x="840" y="1230" as="sourcePoint" />
            <mxPoint x="940" y="1130" as="targetPoint" />
          </mxGeometry>
        </mxCell>
        <mxCell id="tFlB_O44RkPan1QI3NoO-42" value="ACCOUNT" style="swimlane;fontStyle=0;childLayout=stackLayout;horizontal=1;startSize=26;horizontalStack=0;resizeParent=1;resizeParentMax=0;resizeLast=0;collapsible=1;marginBottom=0;align=center;fontSize=14;" parent="1" vertex="1">
          <mxGeometry x="396.25" y="620" width="160" height="116" as="geometry" />
        </mxCell>
        <mxCell id="tFlB_O44RkPan1QI3NoO-43" value="&lt;u&gt;USERNAME&lt;/u&gt;" style="text;strokeColor=none;fillColor=none;spacingLeft=4;spacingRight=4;overflow=hidden;rotatable=0;points=[[0,0.5],[1,0.5]];portConstraint=eastwest;fontSize=12;whiteSpace=wrap;html=1;" parent="tFlB_O44RkPan1QI3NoO-42" vertex="1">
          <mxGeometry y="26" width="160" height="30" as="geometry" />
        </mxCell>
        <mxCell id="tFlB_O44RkPan1QI3NoO-44" value="PASSWORD" style="text;strokeColor=none;fillColor=none;spacingLeft=4;spacingRight=4;overflow=hidden;rotatable=0;points=[[0,0.5],[1,0.5]];portConstraint=eastwest;fontSize=12;whiteSpace=wrap;html=1;" parent="tFlB_O44RkPan1QI3NoO-42" vertex="1">
          <mxGeometry y="56" width="160" height="30" as="geometry" />
        </mxCell>
        <mxCell id="tFlB_O44RkPan1QI3NoO-47" value="EMAIL" style="text;strokeColor=none;fillColor=none;spacingLeft=4;spacingRight=4;overflow=hidden;rotatable=0;points=[[0,0.5],[1,0.5]];portConstraint=eastwest;fontSize=12;whiteSpace=wrap;html=1;" parent="tFlB_O44RkPan1QI3NoO-42" vertex="1">
          <mxGeometry y="86" width="160" height="30" as="geometry" />
        </mxCell>
        <mxCell id="tFlB_O44RkPan1QI3NoO-51" value="DRUG" style="swimlane;fontStyle=0;childLayout=stackLayout;horizontal=1;startSize=26;horizontalStack=0;resizeParent=1;resizeParentMax=0;resizeLast=0;collapsible=1;marginBottom=0;align=center;fontSize=14;" parent="1" vertex="1">
          <mxGeometry x="130" y="1416" width="197.5" height="146" as="geometry" />
        </mxCell>
        <mxCell id="tFlB_O44RkPan1QI3NoO-52" value="CODE" style="text;strokeColor=none;fillColor=none;spacingLeft=4;spacingRight=4;overflow=hidden;rotatable=0;points=[[0,0.5],[1,0.5]];portConstraint=eastwest;fontSize=12;whiteSpace=wrap;html=1;fontStyle=4" parent="tFlB_O44RkPan1QI3NoO-51" vertex="1">
          <mxGeometry y="26" width="197.5" height="30" as="geometry" />
        </mxCell>
        <mxCell id="tFlB_O44RkPan1QI3NoO-53" value="NAME" style="text;strokeColor=none;fillColor=none;spacingLeft=4;spacingRight=4;overflow=hidden;rotatable=0;points=[[0,0.5],[1,0.5]];portConstraint=eastwest;fontSize=12;whiteSpace=wrap;html=1;" parent="tFlB_O44RkPan1QI3NoO-51" vertex="1">
          <mxGeometry y="56" width="197.5" height="30" as="geometry" />
        </mxCell>
        <mxCell id="tFlB_O44RkPan1QI3NoO-54" value="DESCRIPTION" style="text;strokeColor=none;fillColor=none;spacingLeft=4;spacingRight=4;overflow=hidden;rotatable=0;points=[[0,0.5],[1,0.5]];portConstraint=eastwest;fontSize=12;whiteSpace=wrap;html=1;" parent="tFlB_O44RkPan1QI3NoO-51" vertex="1">
          <mxGeometry y="86" width="197.5" height="30" as="geometry" />
        </mxCell>
        <mxCell id="tFlB_O44RkPan1QI3NoO-101" value="PRICE" style="text;strokeColor=none;fillColor=none;spacingLeft=4;spacingRight=4;overflow=hidden;rotatable=0;points=[[0,0.5],[1,0.5]];portConstraint=eastwest;fontSize=12;whiteSpace=wrap;html=1;" parent="tFlB_O44RkPan1QI3NoO-51" vertex="1">
          <mxGeometry y="116" width="197.5" height="30" as="geometry" />
        </mxCell>
        <mxCell id="tFlB_O44RkPan1QI3NoO-77" value="" style="edgeStyle=entityRelationEdgeStyle;fontSize=12;html=1;endArrow=ERmandOne;startArrow=ERmandOne;rounded=0;" parent="1" source="tFlB_O44RkPan1QI3NoO-13" target="TScpjYr6p5Fea-ma_9VI-93" edge="1">
          <mxGeometry width="100" height="100" relative="1" as="geometry">
            <mxPoint x="887.5" y="1266" as="sourcePoint" />
            <mxPoint x="970" y="818" as="targetPoint" />
          </mxGeometry>
        </mxCell>
        <mxCell id="tFlB_O44RkPan1QI3NoO-88" value="" style="edgeStyle=entityRelationEdgeStyle;fontSize=12;html=1;endArrow=ERoneToMany;startArrow=ERmandOne;rounded=0;" parent="1" source="2ctIC8E9U0INF1ZIrR8m-22" target="TScpjYr6p5Fea-ma_9VI-13" edge="1">
          <mxGeometry width="100" height="100" relative="1" as="geometry">
            <mxPoint x="890" y="880" as="sourcePoint" />
            <mxPoint x="810" y="1010" as="targetPoint" />
          </mxGeometry>
        </mxCell>
        <mxCell id="tFlB_O44RkPan1QI3NoO-89" value="RE-EXAMINATION SESSION" style="swimlane;fontStyle=0;childLayout=stackLayout;horizontal=1;startSize=26;horizontalStack=0;resizeParent=1;resizeParentMax=0;resizeLast=0;collapsible=1;marginBottom=0;align=center;fontSize=14;" parent="1" vertex="1">
          <mxGeometry x="1150" y="1572" width="210" height="56" as="geometry" />
        </mxCell>
        <mxCell id="tFlB_O44RkPan1QI3NoO-97" value="" style="edgeStyle=entityRelationEdgeStyle;fontSize=12;html=1;endArrow=ERzeroToMany;startArrow=ERmandOne;rounded=0;endFill=0;" parent="1" source="tFlB_O44RkPan1QI3NoO-19" target="tFlB_O44RkPan1QI3NoO-11" edge="1">
          <mxGeometry width="100" height="100" relative="1" as="geometry">
            <mxPoint x="650" y="1370" as="sourcePoint" />
            <mxPoint x="690" y="1450" as="targetPoint" />
          </mxGeometry>
        </mxCell>
        <mxCell id="47" style="edgeStyle=orthogonalEdgeStyle;html=1;startArrow=none;startFill=0;endArrow=none;endFill=0;" parent="1" source="tFlB_O44RkPan1QI3NoO-103" edge="1">
          <mxGeometry relative="1" as="geometry">
            <mxPoint x="700" y="1486" as="targetPoint" />
          </mxGeometry>
        </mxCell>
        <mxCell id="tFlB_O44RkPan1QI3NoO-103" value="NUMERICAL&amp;nbsp; ORDER" style="ellipse;whiteSpace=wrap;html=1;align=center;" parent="1" vertex="1">
          <mxGeometry x="740" y="1466" width="100" height="46" as="geometry" />
        </mxCell>
        <mxCell id="tFlB_O44RkPan1QI3NoO-122" value="EXAMINATATION SESSION" style="swimlane;fontStyle=0;childLayout=stackLayout;horizontal=1;startSize=26;horizontalStack=0;resizeParent=1;resizeParentMax=0;resizeLast=0;collapsible=1;marginBottom=0;align=center;fontSize=14;" parent="1" vertex="1">
          <mxGeometry x="830" y="1516" width="200" height="56" as="geometry" />
        </mxCell>
        <mxCell id="tFlB_O44RkPan1QI3NoO-127" value="SESSION" style="swimlane;fontStyle=0;childLayout=stackLayout;horizontal=1;startSize=26;horizontalStack=0;resizeParent=1;resizeParentMax=0;resizeLast=0;collapsible=1;marginBottom=0;align=center;fontSize=14;" parent="1" vertex="1">
          <mxGeometry x="1070" y="1370" width="160" height="86" as="geometry" />
        </mxCell>
        <mxCell id="tFlB_O44RkPan1QI3NoO-128" value="&lt;u&gt;TIME&lt;/u&gt;" style="text;strokeColor=none;fillColor=none;spacingLeft=4;spacingRight=4;overflow=hidden;rotatable=0;points=[[0,0.5],[1,0.5]];portConstraint=eastwest;fontSize=12;whiteSpace=wrap;html=1;" parent="tFlB_O44RkPan1QI3NoO-127" vertex="1">
          <mxGeometry y="26" width="160" height="30" as="geometry" />
        </mxCell>
        <mxCell id="tFlB_O44RkPan1QI3NoO-136" value="NOTE" style="text;strokeColor=none;fillColor=none;spacingLeft=4;spacingRight=4;overflow=hidden;rotatable=0;points=[[0,0.5],[1,0.5]];portConstraint=eastwest;fontSize=12;whiteSpace=wrap;html=1;" parent="tFlB_O44RkPan1QI3NoO-127" vertex="1">
          <mxGeometry y="56" width="160" height="30" as="geometry" />
        </mxCell>
        <mxCell id="tFlB_O44RkPan1QI3NoO-135" value="" style="edgeStyle=entityRelationEdgeStyle;fontSize=12;html=1;endArrow=ERoneToMany;startArrow=ERmandOne;rounded=0;" parent="1" source="tFlB_O44RkPan1QI3NoO-107" target="tFlB_O44RkPan1QI3NoO-128" edge="1">
          <mxGeometry width="100" height="100" relative="1" as="geometry">
            <mxPoint x="1300" y="1290" as="sourcePoint" />
            <mxPoint x="1400" y="1190" as="targetPoint" />
          </mxGeometry>
        </mxCell>
        <mxCell id="46" style="edgeStyle=orthogonalEdgeStyle;html=1;startArrow=none;startFill=0;endArrow=none;endFill=0;" parent="1" source="10" edge="1">
          <mxGeometry relative="1" as="geometry">
            <mxPoint x="480" y="1440" as="targetPoint" />
          </mxGeometry>
        </mxCell>
        <mxCell id="10" value="NOTE" style="ellipse;whiteSpace=wrap;html=1;align=center;" parent="1" vertex="1">
          <mxGeometry x="370" y="1476" width="100" height="40" as="geometry" />
        </mxCell>
        <mxCell id="12" value="" style="edgeStyle=orthogonalEdgeStyle;fontSize=12;html=1;endArrow=ERzeroToOne;startArrow=ERmandOne;rounded=0;exitX=1;exitY=0.5;exitDx=0;exitDy=0;endFill=0;strokeWidth=2;" parent="1" source="tFlB_O44RkPan1QI3NoO-43" target="2ctIC8E9U0INF1ZIrR8m-6" edge="1">
          <mxGeometry width="100" height="100" relative="1" as="geometry">
            <mxPoint x="927.5" y="620" as="sourcePoint" />
            <mxPoint x="887.5" y="770" as="targetPoint" />
            <Array as="points">
              <mxPoint x="620" y="661" />
              <mxPoint x="620" y="826" />
            </Array>
          </mxGeometry>
        </mxCell>
        <mxCell id="15" value="" style="edgeStyle=orthogonalEdgeStyle;fontSize=12;html=1;endArrow=ERzeroToOne;startArrow=ERmandOne;rounded=0;entryX=1;entryY=0.5;entryDx=0;entryDy=0;endFill=0;strokeWidth=2;" parent="1" source="TScpjYr6p5Fea-ma_9VI-64" target="TScpjYr6p5Fea-ma_9VI-96" edge="1">
          <mxGeometry width="100" height="100" relative="1" as="geometry">
            <mxPoint x="1450" y="1044" as="sourcePoint" />
            <mxPoint x="1410" y="1194" as="targetPoint" />
            <Array as="points">
              <mxPoint x="1240" y="938" />
              <mxPoint x="1240" y="1201" />
            </Array>
          </mxGeometry>
        </mxCell>
        <mxCell id="16" value="" style="edgeStyle=orthogonalEdgeStyle;fontSize=12;html=1;endArrow=ERzeroToMany;startArrow=ERmandOne;rounded=0;entryX=1;entryY=0.5;entryDx=0;entryDy=0;endFill=0;strokeWidth=2;" parent="1" source="TScpjYr6p5Fea-ma_9VI-52" target="tFlB_O44RkPan1QI3NoO-136" edge="1">
          <mxGeometry width="100" height="100" relative="1" as="geometry">
            <mxPoint x="1380" y="1191" as="sourcePoint" />
            <mxPoint x="1340" y="1341" as="targetPoint" />
            <Array as="points">
              <mxPoint x="1300" y="1421" />
              <mxPoint x="1300" y="1441" />
            </Array>
          </mxGeometry>
        </mxCell>
        <mxCell id="18" value="" style="fontSize=12;html=1;endArrow=ERzeroToMany;startArrow=ERzeroToMany;rounded=0;exitX=0;exitY=0.5;exitDx=0;exitDy=0;endFill=0;strokeWidth=2;startFill=0;edgeStyle=orthogonalEdgeStyle;" parent="1" source="tFlB_O44RkPan1QI3NoO-13" target="tFlB_O44RkPan1QI3NoO-51" edge="1">
          <mxGeometry width="100" height="100" relative="1" as="geometry">
            <mxPoint x="440" y="1630" as="sourcePoint" />
            <mxPoint x="260" y="1650" as="targetPoint" />
            <Array as="points">
              <mxPoint x="670" y="1311" />
              <mxPoint x="670" y="1440" />
              <mxPoint x="520" y="1440" />
              <mxPoint x="520" y="1441" />
            </Array>
          </mxGeometry>
        </mxCell>
        <mxCell id="19" value="" style="edgeStyle=orthogonalEdgeStyle;fontSize=12;html=1;endArrow=ERzeroToMany;startArrow=ERzeroToMany;rounded=0;entryX=1;entryY=0.5;entryDx=0;entryDy=0;endFill=0;strokeWidth=2;startFill=0;" parent="1" source="tFlB_O44RkPan1QI3NoO-96" target="tFlB_O44RkPan1QI3NoO-25" edge="1">
          <mxGeometry width="100" height="100" relative="1" as="geometry">
            <mxPoint x="690" y="1340" as="sourcePoint" />
            <mxPoint x="280" y="1608" as="targetPoint" />
            <Array as="points">
              <mxPoint x="700" y="1330" />
              <mxPoint x="700" y="1542" />
            </Array>
          </mxGeometry>
        </mxCell>
        <mxCell id="20" value="" style="edgeStyle=orthogonalEdgeStyle;fontSize=12;html=1;endArrow=ERzeroToMany;startArrow=ERmandOne;rounded=0;exitX=1;exitY=0.75;exitDx=0;exitDy=0;entryX=0;entryY=0.5;entryDx=0;entryDy=0;endFill=0;strokeWidth=2;" parent="1" source="tFlB_O44RkPan1QI3NoO-38" target="tFlB_O44RkPan1QI3NoO-136" edge="1">
          <mxGeometry width="100" height="100" relative="1" as="geometry">
            <mxPoint x="818.75" y="1151" as="sourcePoint" />
            <mxPoint x="638.75" y="1171" as="targetPoint" />
            <Array as="points">
              <mxPoint x="610" y="1086" />
              <mxPoint x="610" y="1420" />
              <mxPoint x="970" y="1420" />
              <mxPoint x="970" y="1441" />
            </Array>
          </mxGeometry>
        </mxCell>
        <mxCell id="31" style="edgeStyle=none;html=1;entryX=0.5;entryY=0;entryDx=0;entryDy=0;startArrow=none;startFill=0;endArrow=none;endFill=0;startSize=13;endSize=12;" parent="1" source="30" target="tFlB_O44RkPan1QI3NoO-122" edge="1">
          <mxGeometry relative="1" as="geometry" />
        </mxCell>
        <mxCell id="32" style="edgeStyle=none;html=1;entryX=1;entryY=0.5;entryDx=0;entryDy=0;startArrow=none;startFill=0;endArrow=none;endFill=0;startSize=13;endSize=12;" parent="1" source="30" target="tFlB_O44RkPan1QI3NoO-96" edge="1">
          <mxGeometry relative="1" as="geometry" />
        </mxCell>
        <mxCell id="33" style="edgeStyle=none;html=1;startArrow=none;startFill=0;endArrow=none;endFill=0;shape=link;" parent="1" source="30" target="tFlB_O44RkPan1QI3NoO-127" edge="1">
          <mxGeometry relative="1" as="geometry" />
        </mxCell>
        <mxCell id="30" value="D" style="ellipse;whiteSpace=wrap;html=1;aspect=fixed;" parent="1" vertex="1">
          <mxGeometry x="930" y="1380" width="30" height="30" as="geometry" />
        </mxCell>
        <mxCell id="37" style="edgeStyle=none;html=1;startArrow=none;startFill=0;endArrow=none;endFill=0;" parent="1" source="30" target="tFlB_O44RkPan1QI3NoO-89" edge="1">
          <mxGeometry relative="1" as="geometry" />
        </mxCell>
        <mxCell id="39" style="edgeStyle=none;html=1;startArrow=none;startFill=0;endArrow=none;endFill=0;shape=link;" parent="1" source="38" target="2ctIC8E9U0INF1ZIrR8m-5" edge="1">
          <mxGeometry relative="1" as="geometry" />
        </mxCell>
        <mxCell id="40" style="edgeStyle=none;html=1;startArrow=none;startFill=0;endArrow=none;endFill=0;" parent="1" source="38" target="2ctIC8E9U0INF1ZIrR8m-1" edge="1">
          <mxGeometry relative="1" as="geometry" />
        </mxCell>
        <mxCell id="41" style="edgeStyle=none;html=1;startArrow=none;startFill=0;endArrow=none;endFill=0;" parent="1" source="38" target="TScpjYr6p5Fea-ma_9VI-13" edge="1">
          <mxGeometry relative="1" as="geometry" />
        </mxCell>
        <mxCell id="42" style="edgeStyle=none;html=1;startArrow=none;startFill=0;endArrow=none;endFill=0;" parent="1" source="38" target="TScpjYr6p5Fea-ma_9VI-64" edge="1">
          <mxGeometry relative="1" as="geometry" />
        </mxCell>
        <mxCell id="38" value="D" style="ellipse;whiteSpace=wrap;html=1;aspect=fixed;" parent="1" vertex="1">
          <mxGeometry x="588.75" y="930" width="30" height="30" as="geometry" />
        </mxCell>
        <mxCell id="44" style="edgeStyle=none;html=1;entryX=0;entryY=0.5;entryDx=0;entryDy=0;startArrow=none;startFill=0;endArrow=none;endFill=0;shape=link;" parent="1" source="43" target="TScpjYr6p5Fea-ma_9VI-13" edge="1">
          <mxGeometry relative="1" as="geometry" />
        </mxCell>
        <mxCell id="45" style="edgeStyle=none;html=1;startArrow=none;startFill=0;endArrow=none;endFill=0;" parent="1" source="43" target="tFlB_O44RkPan1QI3NoO-38" edge="1">
          <mxGeometry relative="1" as="geometry" />
        </mxCell>
        <mxCell id="43" value="" style="ellipse;whiteSpace=wrap;html=1;aspect=fixed;" parent="1" vertex="1">
          <mxGeometry x="550" y="1040" width="30" height="30" as="geometry" />
        </mxCell>
        <mxCell id="17" value="" style="edgeStyle=orthogonalEdgeStyle;fontSize=12;html=1;endArrow=ERzeroToMany;startArrow=ERmandOne;rounded=0;endFill=0;strokeWidth=2;" parent="1" source="tFlB_O44RkPan1QI3NoO-122" target="tFlB_O44RkPan1QI3NoO-89" edge="1">
          <mxGeometry width="100" height="100" relative="1" as="geometry">
            <mxPoint x="1035" y="1530.03" as="sourcePoint" />
            <mxPoint x="1195" y="1530.03" as="targetPoint" />
            <Array as="points" />
          </mxGeometry>
        </mxCell>
      </root>
    </mxGraphModel>
  </diagram>
</mxfile>
